<!DOCTYPE svg PUBLIC "-//W3C//DTD SVG 1.1//EN" "http://www.w3.org/Graphics/SVG/1.1/DTD/svg11.dtd">
<!-- Uploaded to: SVG Repo, www.svgrepo.com, Transformed by: SVG Repo Mixer Tools -->
<svg width="800px" height="800px" viewBox="-1.5 -1.5 18.00 18.00" fill="none" xmlns="http://www.w3.org/2000/svg" stroke="#84828A" stroke-width="0.00015000000000000001">
<g id="SVGRepo_bgCarrier" stroke-width="0"/>
<g id="SVGRepo_tracerCarrier" stroke-linecap="round" stroke-linejoin="round"/>
<g id="SVGRepo_iconCarrier"> <rect x="7" y="5.025" width="1" height="1" rx=".5" fill="#84828A"/> <rect x="13" y="5.025" width="1" height="1" rx=".5" fill="#84828A"/> <rect x="7" y="3.025" width="1" height="1" rx=".5" fill="#84828A"/> <rect x="13" y="3.025" width="1" height="1" rx=".5" fill="#84828A"/> <rect x="7" y="7.025" width="1" height="1" rx=".5" fill="#84828A"/> <rect x="7" y="13.025" width="1" height="1" rx=".5" fill="#84828A"/> <rect x="7" y="1.025" width="1" height="1" rx=".5" fill="#84828A"/> <rect x="13" y="7.025" width="1" height="1" rx=".5" fill="#84828A"/> <rect x="13" y="13.025" width="1" height="1" rx=".5" fill="#84828A"/> <rect x="13" y="1.025" width="1" height="1" rx=".5" fill="#84828A"/> <rect x="5" y="7.025" width="1" height="1" rx=".5" fill="#84828A"/> <rect x="5" y="13.025" width="1" height="1" rx=".5" fill="#84828A"/> <rect x="5" y="1.025" width="1" height="1" rx=".5" fill="#84828A"/> <rect x="3" y="7.025" width="1" height="1" rx=".5" fill="#84828A"/> <rect x="3" y="13.025" width="1" height="1" rx=".5" fill="#84828A"/> <rect x="3" y="1.025" width="1" height="1" rx=".5" fill="#84828A"/> <rect x="9" y="7.025" width="1" height="1" rx=".5" fill="#84828A"/> <rect x="9" y="13.025" width="1" height="1" rx=".5" fill="#84828A"/> <rect x="9" y="1.025" width="1" height="1" rx=".5" fill="#84828A"/> <rect x="11" y="7.025" width="1" height="1" rx=".5" fill="#84828A"/> <rect x="11" y="13.025" width="1" height="1" rx=".5" fill="#84828A"/> <rect x="11" y="1.025" width="1" height="1" rx=".5" fill="#84828A"/> <rect x="7" y="9.025" width="1" height="1" rx=".5" fill="#84828A"/> <rect x="13" y="9.025" width="1" height="1" rx=".5" fill="#84828A"/> <rect x="7" y="11.025" width="1" height="1" rx=".5" fill="#84828A"/> <rect x="13" y="11.025" width="1" height="1" rx=".5" fill="#84828A"/> <rect x="1" y="5.025" width="1" height="1" rx=".5" fill="#84828A"/> <rect x="1" y="3.025" width="1" height="1" rx=".5" fill="#84828A"/> <rect x="1" y="7.025" width="1" height="1" rx=".5" fill="#84828A"/> <rect x="1" y="13.025" width="1" height="1" rx=".5" fill="#84828A"/> <rect x="1" y="1.025" width="1" height="1" rx=".5" fill="#84828A"/> <rect x="1" y="9.025" width="1" height="1" rx=".5" fill="#84828A"/> <rect x="1" y="11.025" width="1" height="1" rx=".5" fill="#84828A"/> </g>
</svg>