<!DOCTYPE svg PUBLIC "-//W3C//DTD SVG 1.1//EN" "http://www.w3.org/Graphics/SVG/1.1/DTD/svg11.dtd">
<!-- Uploaded to: SVG Repo, www.svgrepo.com, Transformed by: SVG Repo Mixer Tools -->
<svg fill="#84828A" height="800px" width="800px" version="1.1" id="Layer_1" xmlns="http://www.w3.org/2000/svg" xmlns:xlink="http://www.w3.org/1999/xlink" viewBox="-51.2 -51.2 614.40 614.40" xml:space="preserve" transform="rotate(0)matrix(1, 0, 0, 1, 0, 0)" stroke="#84828A" stroke-width="0.00512">
<g id="SVGRepo_bgCarrier" stroke-width="0"/>
<g id="SVGRepo_tracerCarrier" stroke-linecap="round" stroke-linejoin="round" stroke="#CCCCCC" stroke-width="7.168000000000001"/>
<g id="SVGRepo_iconCarrier"> <g> <g> <path d="M349.659,106.146v-31.22c0-24.1-19.607-43.707-43.707-43.707h-99.902c-24.1,0-43.707,19.607-43.707,43.707v31.22H0V480.78 h512V106.146H349.659z M199.805,74.927c0-3.443,2.801-6.244,6.244-6.244h99.902c3.443,0,6.244,2.801,6.244,6.244v31.22h-112.39 V74.927z M474.537,443.317H37.463V273.646c53.668,19.108,124.105,30.487,199.805,32.102v31.422h37.463v-31.422 c75.7-1.616,146.137-12.995,199.805-32.102V443.317z M474.537,233.593c-50.262,20.311-122.881,32.9-199.805,34.671v-30.996 h-37.463v30.995c-76.924-1.771-149.543-14.36-199.805-34.671V143.61h437.073V233.593z"/> </g> </g> </g>
</svg>