<!DOCTYPE svg PUBLIC "-//W3C//DTD SVG 1.1//EN" "http://www.w3.org/Graphics/SVG/1.1/DTD/svg11.dtd">
<!-- Uploaded to: SVG Repo, www.svgrepo.com, Transformed by: SVG Repo Mixer Tools -->
<svg fill="#84828A" version="1.1" id="Capa_1" xmlns="http://www.w3.org/2000/svg" xmlns:xlink="http://www.w3.org/1999/xlink" viewBox="-6 -6 72.00 72.00" xml:space="preserve" width="800px" height="800px" transform="rotate(90)" stroke="#84828A" stroke-width="0.0006000000000000001">
<g id="SVGRepo_bgCarrier" stroke-width="0"/>
<g id="SVGRepo_tracerCarrier" stroke-linecap="round" stroke-linejoin="round"/>
<g id="SVGRepo_iconCarrier"> <g> <rect x="24.5" y="28" width="8" height="4"/> <rect x="24.5" y="46" width="8" height="4"/> <path d="M46.5,11V3.096C46.5,1.389,45.111,0,43.405,0H27.5v1c0,1.103-0.897,2-2,2s-2-0.897-2-2V0h-3h-2h-5v5h2v50h-2v5h5h2h3v-1 c0-1.103,0.897-2,2-2s2,0.897,2,2v1h15.905c1.707,0,3.095-1.389,3.095-3.096V49h-7v-2h7v-1h-7v-2h7v-1h-7v-2h7v-1h-7v-2h7v-1h-7v-2 h7v-1h-7v-2h7v-1h-7v-2h7v-1h-7v-2h7v-1h-7v-2h7v-1h-7v-2h7v-1h-7v-2h7v-1h-7v-2h7v-1h-7v-2H46.5z M18.5,58h-3v-1h2V3h-2V2h3V58z M34.5,52h-2v2h-2v-2h-1v2h-2v-2h-1v2h-2v-2h-2v-8h2v-2h2v2h1v-2h2v2h1v-2h2v2h2V52z M34.5,34h-2v2h-2v-2h-1v2h-2v-2h-1v2h-2v-2h-2 v-8h2v-2h2v2h1v-2h2v2h1v-2h2v2h2V34z M34.5,16h-2v2h-2v-2h-1v2h-2v-2h-1v2h-2v-2h-2V8h2V6h2v2h1V6h2v2h1V6h2v2h2V16z"/> <rect x="24.5" y="10" width="8" height="4"/> </g> </g>
</svg>